# xmcd
#
# Track frame offsets: 
#        182
#        20475
#        43652
#        72460
#        93600
#        117112
#        141777
#        158465
#        179290
#        203415
#        223730
#        242327
#
# Disc length: 3660 seconds
#
# Revision: 4
# Processed by: cddbd v1.5.2PL0 Copyright (c) Steve Scherf et al.
# Submitted via: ExactAudioCopy v1.0b3
#
DISCID=9f0e4a0c
DTITLE=Buddy Scott - Bad avenue
DYEAR=1992
DGENRE=Blues
TTITLE0=My babe
TTITLE1=Big fat woman
TTITLE2=Bad bad feeling
TTITLE3=Big boss man
TTITLE4=Rock me baby
TTITLE5=Wake up baby
TTITLE6=Today I started loving you again
TTITLE7=Mother fur ya
TTITLE8=Blues with a feeling
TTITLE9=Bring it on home to me
TTITLE10=Welfare blues
TTITLE11=Bad avenue
EXTD=
EXTT0=
EXTT1=
EXTT2=
EXTT3=
EXTT4=
EXTT5=
EXTT6=
EXTT7=
EXTT8=
EXTT9=
EXTT10=
EXTT11=
PLAYORDER=
